<svg xmlns="http://www.w3.org/2000/svg" viewBox="0 0 16 16" fill="none">
  <g stroke="#ff6a00" stroke-width="2.2" stroke-linecap="round" stroke-linejoin="round" opacity="0.22">
    <path d="M3 2.5H5.5"/>
    <path d="M2.5 3V5.5"/>
    <path d="M10.5 2.5H13"/>
    <path d="M13.5 3V5.5"/>
    <path d="M13.5 10.5V13"/>
    <path d="M10.5 13.5H13"/>
    <path d="M3 13.5H5.5"/>
    <path d="M2.5 10.5V13"/>
    <path d="M8 3.4L11.6 4.8V8.1C11.6 10.3 10.2 12.1 8 13.1C5.8 12.1 4.4 10.3 4.4 8.1V4.8L8 3.4Z"/>
    <path d="M6.2 8.2L7.4 9.4L9.9 6.9"/>
  </g>
  <g stroke="#ffb347" stroke-width="1.15" stroke-linecap="round" stroke-linejoin="round">
    <path d="M3 2.5H5.5"/>
    <path d="M2.5 3V5.5"/>
    <path d="M10.5 2.5H13"/>
    <path d="M13.5 3V5.5"/>
    <path d="M13.5 10.5V13"/>
    <path d="M10.5 13.5H13"/>
    <path d="M3 13.5H5.5"/>
    <path d="M2.5 10.5V13"/>
    <path d="M8 3.4L11.6 4.8V8.1C11.6 10.3 10.2 12.1 8 13.1C5.8 12.1 4.4 10.3 4.4 8.1V4.8L8 3.4Z"/>
    <path d="M6.2 8.2L7.4 9.4L9.9 6.9"/>
  </g>
</svg>
