<svg xmlns="http://www.w3.org/2000/svg" viewBox="0 0 16 16" fill="none">
  <g stroke="#ff6a00" stroke-width="2.2" stroke-linecap="round" stroke-linejoin="round" opacity="0.22">
    <path d="M3 2.5H5.5"/>
    <path d="M2.5 3V5.5"/>
    <path d="M10.5 2.5H13"/>
    <path d="M13.5 3V5.5"/>
    <path d="M13.5 10.5V13"/>
    <path d="M10.5 13.5H13"/>
    <path d="M3 13.5H5.5"/>
    <path d="M2.5 10.5V13"/>
    <path d="M5 10.8C5.7 8.3 7.2 5.9 10.3 4.2L11.8 5.7C10.1 8.8 7.7 10.3 5.2 11Z"/>
    <path d="M10.4 4.2L11.9 2.7L13.3 4.1L11.8 5.6"/>
    <path d="M4.6 11.3L3.7 12.3"/>
  </g>
  <g stroke="#ffb347" stroke-width="1.15" stroke-linecap="round" stroke-linejoin="round">
    <path d="M3 2.5H5.5"/>
    <path d="M2.5 3V5.5"/>
    <path d="M10.5 2.5H13"/>
    <path d="M13.5 3V5.5"/>
    <path d="M13.5 10.5V13"/>
    <path d="M10.5 13.5H13"/>
    <path d="M3 13.5H5.5"/>
    <path d="M2.5 10.5V13"/>
    <path d="M5 10.8C5.7 8.3 7.2 5.9 10.3 4.2L11.8 5.7C10.1 8.8 7.7 10.3 5.2 11Z"/>
    <path d="M10.4 4.2L11.9 2.7L13.3 4.1L11.8 5.6"/>
    <path d="M4.6 11.3L3.7 12.3"/>
  </g>
</svg>
