<svg xmlns="http://www.w3.org/2000/svg" viewBox="0 0 16 16" fill="none">
  <g stroke="#ff6a00" stroke-width="2.2" stroke-linecap="round" stroke-linejoin="round" opacity="0.22">
    <path d="M3 2.5H5.5"/>
    <path d="M2.5 3V5.5"/>
    <path d="M10.5 2.5H13"/>
    <path d="M13.5 3V5.5"/>
    <path d="M13.5 10.5V13"/>
    <path d="M10.5 13.5H13"/>
    <path d="M3 13.5H5.5"/>
    <path d="M2.5 10.5V13"/>
    <path d="M5.2 5.6C5.5 4.5 6.6 3.7 8 3.7C9.7 3.7 10.9 4.7 10.9 6.1C10.9 7.2 10.2 7.8 9.3 8.4C8.5 8.9 8.1 9.4 8.1 10.1"/>
    <circle cx="8" cy="12" r="0.55"/>
  </g>
  <g stroke="#ffb347" stroke-width="1.15" stroke-linecap="round" stroke-linejoin="round">
    <path d="M3 2.5H5.5"/>
    <path d="M2.5 3V5.5"/>
    <path d="M10.5 2.5H13"/>
    <path d="M13.5 3V5.5"/>
    <path d="M13.5 10.5V13"/>
    <path d="M10.5 13.5H13"/>
    <path d="M3 13.5H5.5"/>
    <path d="M2.5 10.5V13"/>
    <path d="M5.2 5.6C5.5 4.5 6.6 3.7 8 3.7C9.7 3.7 10.9 4.7 10.9 6.1C10.9 7.2 10.2 7.8 9.3 8.4C8.5 8.9 8.1 9.4 8.1 10.1"/>
    <circle cx="8" cy="12" r="0.55"/>
  </g>
</svg>
