<svg xmlns="http://www.w3.org/2000/svg" viewBox="0 0 16 16" fill="none">
  <g stroke="#ff6a00" stroke-width="2.2" stroke-linecap="round" stroke-linejoin="round" opacity="0.22">
    <path d="M3 2.5H5.5"/>
    <path d="M2.5 3V5.5"/>
    <path d="M10.5 2.5H13"/>
    <path d="M13.5 3V5.5"/>
    <path d="M13.5 10.5V13"/>
    <path d="M10.5 13.5H13"/>
    <path d="M3 13.5H5.5"/>
    <path d="M2.5 10.5V13"/>
    <rect x="4.1" y="3.8" width="7.8" height="8.4" rx="1"/>
    <path d="M5.5 5.5H10.5"/>
    <path d="M5.5 8H6.7M8 8H9.2M10.5 8H10.5"/>
    <path d="M5.5 10.2H6.7M8 10.2H9.2M10.5 10.2H10.5"/>
  </g>
  <g stroke="#ffb347" stroke-width="1.15" stroke-linecap="round" stroke-linejoin="round">
    <path d="M3 2.5H5.5"/>
    <path d="M2.5 3V5.5"/>
    <path d="M10.5 2.5H13"/>
    <path d="M13.5 3V5.5"/>
    <path d="M13.5 10.5V13"/>
    <path d="M10.5 13.5H13"/>
    <path d="M3 13.5H5.5"/>
    <path d="M2.5 10.5V13"/>
    <rect x="4.1" y="3.8" width="7.8" height="8.4" rx="1"/>
    <path d="M5.5 5.5H10.5"/>
    <path d="M5.5 8H6.7M8 8H9.2M10.5 8H10.5"/>
    <path d="M5.5 10.2H6.7M8 10.2H9.2M10.5 10.2H10.5"/>
  </g>
</svg>
