<svg xmlns="http://www.w3.org/2000/svg" viewBox="0 0 16 16" fill="none">
  <g stroke="#ff6a00" stroke-width="2.2" stroke-linecap="round" stroke-linejoin="round" opacity="0.22">
    <path d="M3 2.5H5.5"/>
    <path d="M2.5 3V5.5"/>
    <path d="M10.5 2.5H13"/>
    <path d="M13.5 3V5.5"/>
    <path d="M13.5 10.5V13"/>
    <path d="M10.5 13.5H13"/>
    <path d="M3 13.5H5.5"/>
    <path d="M2.5 10.5V13"/>
    <rect x="3.7" y="5.2" width="8.6" height="6.1" rx="1"/>
    <path d="M6 5.2V4.3C6 3.8 6.4 3.4 6.9 3.4H9.1C9.6 3.4 10 3.8 10 4.3V5.2"/>
    <path d="M3.7 8H12.3"/>
  </g>
  <g stroke="#ffb347" stroke-width="1.15" stroke-linecap="round" stroke-linejoin="round">
    <path d="M3 2.5H5.5"/>
    <path d="M2.5 3V5.5"/>
    <path d="M10.5 2.5H13"/>
    <path d="M13.5 3V5.5"/>
    <path d="M13.5 10.5V13"/>
    <path d="M10.5 13.5H13"/>
    <path d="M3 13.5H5.5"/>
    <path d="M2.5 10.5V13"/>
    <rect x="3.7" y="5.2" width="8.6" height="6.1" rx="1"/>
    <path d="M6 5.2V4.3C6 3.8 6.4 3.4 6.9 3.4H9.1C9.6 3.4 10 3.8 10 4.3V5.2"/>
    <path d="M3.7 8H12.3"/>
  </g>
</svg>
