<svg xmlns="http://www.w3.org/2000/svg" viewBox="0 0 16 16" fill="none">
  <g stroke="#ff6a00" stroke-width="2.2" stroke-linecap="round" stroke-linejoin="round" opacity="0.22">
    <path d="M3 2.5H5.5"/>
    <path d="M2.5 3V5.5"/>
    <path d="M10.5 2.5H13"/>
    <path d="M13.5 3V5.5"/>
    <path d="M13.5 10.5V13"/>
    <path d="M10.5 13.5H13"/>
    <path d="M3 13.5H5.5"/>
    <path d="M2.5 10.5V13"/>
    <path d="M3.6 4.6H10.4C11.3 4.6 11.9 5.2 11.9 6.1V8.1C11.9 9 11.3 9.6 10.4 9.6H7.3L4.8 11.4V9.6H3.6C2.7 9.6 2.1 9 2.1 8.1V6.1C2.1 5.2 2.7 4.6 3.6 4.6Z"/>
    <path d="M5 8.5L6.2 5.9L7.4 8.5"/>
    <path d="M5.4 7.7H7"/>
  </g>
  <g stroke="#ffb347" stroke-width="1.15" stroke-linecap="round" stroke-linejoin="round">
    <path d="M3 2.5H5.5"/>
    <path d="M2.5 3V5.5"/>
    <path d="M10.5 2.5H13"/>
    <path d="M13.5 3V5.5"/>
    <path d="M13.5 10.5V13"/>
    <path d="M10.5 13.5H13"/>
    <path d="M3 13.5H5.5"/>
    <path d="M2.5 10.5V13"/>
    <path d="M3.6 4.6H10.4C11.3 4.6 11.9 5.2 11.9 6.1V8.1C11.9 9 11.3 9.6 10.4 9.6H7.3L4.8 11.4V9.6H3.6C2.7 9.6 2.1 9 2.1 8.1V6.1C2.1 5.2 2.7 4.6 3.6 4.6Z"/>
    <path d="M5 8.5L6.2 5.9L7.4 8.5"/>
    <path d="M5.4 7.7H7"/>
  </g>
</svg>
