<svg xmlns="http://www.w3.org/2000/svg" viewBox="0 0 16 16" fill="none">
  <g stroke="#ff6a00" stroke-width="2.2" stroke-linecap="round" stroke-linejoin="round" opacity="0.22">
    <path d="M3 2.5H5.5"/>
    <path d="M2.5 3V5.5"/>
    <path d="M10.5 2.5H13"/>
    <path d="M13.5 3V5.5"/>
    <path d="M13.5 10.5V13"/>
    <path d="M10.5 13.5H13"/>
    <path d="M3 13.5H5.5"/>
    <path d="M2.5 10.5V13"/>
    <path d="M6.2 3.5H9.8"/>
    <path d="M7 3.5V6.1L4.5 10.6C4.1 11.4 4.7 12.3 5.6 12.3H10.4C11.3 12.3 11.9 11.4 11.5 10.6L9 6.1V3.5"/>
    <path d="M5.8 9.3H10.2"/>
  </g>
  <g stroke="#ffb347" stroke-width="1.15" stroke-linecap="round" stroke-linejoin="round">
    <path d="M3 2.5H5.5"/>
    <path d="M2.5 3V5.5"/>
    <path d="M10.5 2.5H13"/>
    <path d="M13.5 3V5.5"/>
    <path d="M13.5 10.5V13"/>
    <path d="M10.5 13.5H13"/>
    <path d="M3 13.5H5.5"/>
    <path d="M2.5 10.5V13"/>
    <path d="M6.2 3.5H9.8"/>
    <path d="M7 3.5V6.1L4.5 10.6C4.1 11.4 4.7 12.3 5.6 12.3H10.4C11.3 12.3 11.9 11.4 11.5 10.6L9 6.1V3.5"/>
    <path d="M5.8 9.3H10.2"/>
  </g>
</svg>
