<svg xmlns="http://www.w3.org/2000/svg" viewBox="0 0 16 16" fill="none">
  <g stroke="#ff6a00" stroke-width="2.2" stroke-linecap="round" stroke-linejoin="round" opacity="0.22">
    <path d="M3 2.5H5.5"/>
    <path d="M2.5 3V5.5"/>
    <path d="M10.5 2.5H13"/>
    <path d="M13.5 3V5.5"/>
    <path d="M13.5 10.5V13"/>
    <path d="M10.5 13.5H13"/>
    <path d="M3 13.5H5.5"/>
    <path d="M2.5 10.5V13"/>
    <path d="M5 3.5H9.2L11.5 5.8V12.1H5Z"/>
    <path d="M9.2 3.5V5.8H11.5"/>
    <path d="M6.3 7.3H9.8"/>
    <path d="M6.3 9.1H9.8"/>
  </g>
  <g stroke="#ffb347" stroke-width="1.15" stroke-linecap="round" stroke-linejoin="round">
    <path d="M3 2.5H5.5"/>
    <path d="M2.5 3V5.5"/>
    <path d="M10.5 2.5H13"/>
    <path d="M13.5 3V5.5"/>
    <path d="M13.5 10.5V13"/>
    <path d="M10.5 13.5H13"/>
    <path d="M3 13.5H5.5"/>
    <path d="M2.5 10.5V13"/>
    <path d="M5 3.5H9.2L11.5 5.8V12.1H5Z"/>
    <path d="M9.2 3.5V5.8H11.5"/>
    <path d="M6.3 7.3H9.8"/>
    <path d="M6.3 9.1H9.8"/>
  </g>
</svg>
