<svg xmlns="http://www.w3.org/2000/svg" viewBox="0 0 16 16" fill="none">
  <g stroke="#ff6a00" stroke-width="2.2" stroke-linecap="round" stroke-linejoin="round" opacity="0.22">
    <path d="M3 2.5H5.5"/>
    <path d="M2.5 3V5.5"/>
    <path d="M10.5 2.5H13"/>
    <path d="M13.5 3V5.5"/>
    <path d="M13.5 10.5V13"/>
    <path d="M10.5 13.5H13"/>
    <path d="M3 13.5H5.5"/>
    <path d="M2.5 10.5V13"/>
    <rect x="3.6" y="4.2" width="8.8" height="7.2" rx="1"/>
    <circle cx="6.1" cy="6.4" r="0.7"/>
    <path d="M4.8 10L7.2 7.7L8.8 9.1L10.4 7.3L11.2 8.2V10"/>
  </g>
  <g stroke="#ffb347" stroke-width="1.15" stroke-linecap="round" stroke-linejoin="round">
    <path d="M3 2.5H5.5"/>
    <path d="M2.5 3V5.5"/>
    <path d="M10.5 2.5H13"/>
    <path d="M13.5 3V5.5"/>
    <path d="M13.5 10.5V13"/>
    <path d="M10.5 13.5H13"/>
    <path d="M3 13.5H5.5"/>
    <path d="M2.5 10.5V13"/>
    <rect x="3.6" y="4.2" width="8.8" height="7.2" rx="1"/>
    <circle cx="6.1" cy="6.4" r="0.7"/>
    <path d="M4.8 10L7.2 7.7L8.8 9.1L10.4 7.3L11.2 8.2V10"/>
  </g>
</svg>
