<svg xmlns="http://www.w3.org/2000/svg" viewBox="0 0 16 16" fill="none">
  <g stroke="#ff6a00" stroke-width="2.2" stroke-linecap="round" stroke-linejoin="round" opacity="0.22">
    <path d="M3 2.5H5.5"/>
    <path d="M2.5 3V5.5"/>
    <path d="M10.5 2.5H13"/>
    <path d="M13.5 3V5.5"/>
    <path d="M13.5 10.5V13"/>
    <path d="M10.5 13.5H13"/>
    <path d="M3 13.5H5.5"/>
    <path d="M2.5 10.5V13"/>
    <circle cx="8" cy="8" r="4"/>
    <path d="M4.2 8H11.8"/>
    <path d="M8 4.1C9.2 5.2 9.8 6.6 9.8 8C9.8 9.4 9.2 10.8 8 11.9C6.8 10.8 6.2 9.4 6.2 8C6.2 6.6 6.8 5.2 8 4.1Z"/>
  </g>
  <g stroke="#ffb347" stroke-width="1.15" stroke-linecap="round" stroke-linejoin="round">
    <path d="M3 2.5H5.5"/>
    <path d="M2.5 3V5.5"/>
    <path d="M10.5 2.5H13"/>
    <path d="M13.5 3V5.5"/>
    <path d="M13.5 10.5V13"/>
    <path d="M10.5 13.5H13"/>
    <path d="M3 13.5H5.5"/>
    <path d="M2.5 10.5V13"/>
    <circle cx="8" cy="8" r="4"/>
    <path d="M4.2 8H11.8"/>
    <path d="M8 4.1C9.2 5.2 9.8 6.6 9.8 8C9.8 9.4 9.2 10.8 8 11.9C6.8 10.8 6.2 9.4 6.2 8C6.2 6.6 6.8 5.2 8 4.1Z"/>
  </g>
</svg>
