<svg xmlns="http://www.w3.org/2000/svg" viewBox="0 0 16 16" fill="none">
  <g stroke="#ff6a00" stroke-width="2.2" stroke-linecap="round" stroke-linejoin="round" opacity="0.22">
    <path d="M3 2.5H5.5"/>
    <path d="M2.5 3V5.5"/>
    <path d="M10.5 2.5H13"/>
    <path d="M13.5 3V5.5"/>
    <path d="M13.5 10.5V13"/>
    <path d="M10.5 13.5H13"/>
    <path d="M3 13.5H5.5"/>
    <path d="M2.5 10.5V13"/>
    <path d="M5 3.2V12.8"/>
    <path d="M5 4.2H10.8L9.4 6.1L10.8 8H5"/>
    <path d="M5 8.8H9.8L8.5 10.5L9.8 12.1H5"/>
  </g>
  <g stroke="#ffb347" stroke-width="1.15" stroke-linecap="round" stroke-linejoin="round">
    <path d="M3 2.5H5.5"/>
    <path d="M2.5 3V5.5"/>
    <path d="M10.5 2.5H13"/>
    <path d="M13.5 3V5.5"/>
    <path d="M13.5 10.5V13"/>
    <path d="M10.5 13.5H13"/>
    <path d="M3 13.5H5.5"/>
    <path d="M2.5 10.5V13"/>
    <path d="M5 3.2V12.8"/>
    <path d="M5 4.2H10.8L9.4 6.1L10.8 8H5"/>
    <path d="M5 8.8H9.8L8.5 10.5L9.8 12.1H5"/>
  </g>
</svg>
