<svg xmlns="http://www.w3.org/2000/svg" viewBox="0 0 16 16" fill="none">
  <g stroke="#ff6a00" stroke-width="2.2" stroke-linecap="round" stroke-linejoin="round" opacity="0.22">
    <path d="M3 2.5H5.5"/>
    <path d="M2.5 3V5.5"/>
    <path d="M10.5 2.5H13"/>
    <path d="M13.5 3V5.5"/>
    <path d="M13.5 10.5V13"/>
    <path d="M10.5 13.5H13"/>
    <path d="M3 13.5H5.5"/>
    <path d="M2.5 10.5V13"/>
    <path d="M5.2 3.7H10.8"/>
    <path d="M5.2 12.3H10.8"/>
    <path d="M5.2 3.7V5.3C5.2 6.5 6.2 7.3 8 8C9.8 8.7 10.8 9.5 10.8 10.7V12.3"/>
    <path d="M10.8 3.7V5.3C10.8 6.5 9.8 7.3 8 8C6.2 8.7 5.2 9.5 5.2 10.7V12.3"/>
  </g>
  <g stroke="#ffb347" stroke-width="1.15" stroke-linecap="round" stroke-linejoin="round">
    <path d="M3 2.5H5.5"/>
    <path d="M2.5 3V5.5"/>
    <path d="M10.5 2.5H13"/>
    <path d="M13.5 3V5.5"/>
    <path d="M13.5 10.5V13"/>
    <path d="M10.5 13.5H13"/>
    <path d="M3 13.5H5.5"/>
    <path d="M2.5 10.5V13"/>
    <path d="M5.2 3.7H10.8"/>
    <path d="M5.2 12.3H10.8"/>
    <path d="M5.2 3.7V5.3C5.2 6.5 6.2 7.3 8 8C9.8 8.7 10.8 9.5 10.8 10.7V12.3"/>
    <path d="M10.8 3.7V5.3C10.8 6.5 9.8 7.3 8 8C6.2 8.7 5.2 9.5 5.2 10.7V12.3"/>
  </g>
</svg>
