<svg xmlns="http://www.w3.org/2000/svg" viewBox="0 0 16 16" fill="none">
  <g stroke="#ff6a00" stroke-width="2.2" stroke-linecap="round" stroke-linejoin="round" opacity="0.22">
    <path d="M3 2.5H5.5"/>
    <path d="M2.5 3V5.5"/>
    <path d="M10.5 2.5H13"/>
    <path d="M13.5 3V5.5"/>
    <path d="M13.5 10.5V13"/>
    <path d="M10.5 13.5H13"/>
    <path d="M3 13.5H5.5"/>
    <path d="M2.5 10.5V13"/>
    <path d="M4.8 8V7.4C4.8 5.6 6.2 4.2 8 4.2C9.8 4.2 11.2 5.6 11.2 7.4V8"/>
    <rect x="3.7" y="7.8" width="1.8" height="3.2" rx="0.7"/>
    <rect x="10.5" y="7.8" width="1.8" height="3.2" rx="0.7"/>
  </g>
  <g stroke="#ffb347" stroke-width="1.15" stroke-linecap="round" stroke-linejoin="round">
    <path d="M3 2.5H5.5"/>
    <path d="M2.5 3V5.5"/>
    <path d="M10.5 2.5H13"/>
    <path d="M13.5 3V5.5"/>
    <path d="M13.5 10.5V13"/>
    <path d="M10.5 13.5H13"/>
    <path d="M3 13.5H5.5"/>
    <path d="M2.5 10.5V13"/>
    <path d="M4.8 8V7.4C4.8 5.6 6.2 4.2 8 4.2C9.8 4.2 11.2 5.6 11.2 7.4V8"/>
    <rect x="3.7" y="7.8" width="1.8" height="3.2" rx="0.7"/>
    <rect x="10.5" y="7.8" width="1.8" height="3.2" rx="0.7"/>
  </g>
</svg>
