<svg xmlns="http://www.w3.org/2000/svg" viewBox="0 0 16 16" fill="none">
  <g stroke="#ff6a00" stroke-width="2.2" stroke-linecap="round" stroke-linejoin="round" opacity="0.22">
    <path d="M3 2.5H5.5"/>
    <path d="M2.5 3V5.5"/>
    <path d="M10.5 2.5H13"/>
    <path d="M13.5 3V5.5"/>
    <path d="M13.5 10.5V13"/>
    <path d="M10.5 13.5H13"/>
    <path d="M3 13.5H5.5"/>
    <path d="M2.5 10.5V13"/>
    <path d="M5 5.4H7.4"/>
    <path d="M6.2 4.2V6.6"/>
    <path d="M8.8 4.8H11"/>
    <path d="M8.8 6.2H11"/>
    <path d="M5.1 10.7H7.3"/>
    <path d="M8.9 9.5L11 11.6"/>
    <path d="M11 9.5L8.9 11.6"/>
  </g>
  <g stroke="#ffb347" stroke-width="1.15" stroke-linecap="round" stroke-linejoin="round">
    <path d="M3 2.5H5.5"/>
    <path d="M2.5 3V5.5"/>
    <path d="M10.5 2.5H13"/>
    <path d="M13.5 3V5.5"/>
    <path d="M13.5 10.5V13"/>
    <path d="M10.5 13.5H13"/>
    <path d="M3 13.5H5.5"/>
    <path d="M2.5 10.5V13"/>
    <path d="M5 5.4H7.4"/>
    <path d="M6.2 4.2V6.6"/>
    <path d="M8.8 4.8H11"/>
    <path d="M8.8 6.2H11"/>
    <path d="M5.1 10.7H7.3"/>
    <path d="M8.9 9.5L11 11.6"/>
    <path d="M11 9.5L8.9 11.6"/>
  </g>
</svg>
