<svg xmlns="http://www.w3.org/2000/svg" viewBox="0 0 16 16" fill="none">
  <g stroke="#ff6a00" stroke-width="2.2" stroke-linecap="round" stroke-linejoin="round" opacity="0.22">
    <path d="M3 2.5H5.5"/>
    <path d="M2.5 3V5.5"/>
    <path d="M10.5 2.5H13"/>
    <path d="M13.5 3V5.5"/>
    <path d="M13.5 10.5V13"/>
    <path d="M10.5 13.5H13"/>
    <path d="M3 13.5H5.5"/>
    <path d="M2.5 10.5V13"/>
    <path d="M11.5 4.6C8.4 4.5 5.4 6.4 4.7 9.8C7.8 9.9 10.8 8 11.5 4.6Z"/>
    <path d="M5.7 9.1C7 8.1 8.5 7.3 10.4 6.6"/>
  </g>
  <g stroke="#ffb347" stroke-width="1.15" stroke-linecap="round" stroke-linejoin="round">
    <path d="M3 2.5H5.5"/>
    <path d="M2.5 3V5.5"/>
    <path d="M10.5 2.5H13"/>
    <path d="M13.5 3V5.5"/>
    <path d="M13.5 10.5V13"/>
    <path d="M10.5 13.5H13"/>
    <path d="M3 13.5H5.5"/>
    <path d="M2.5 10.5V13"/>
    <path d="M11.5 4.6C8.4 4.5 5.4 6.4 4.7 9.8C7.8 9.9 10.8 8 11.5 4.6Z"/>
    <path d="M5.7 9.1C7 8.1 8.5 7.3 10.4 6.6"/>
  </g>
</svg>
