<svg xmlns="http://www.w3.org/2000/svg" viewBox="0 0 16 16" fill="none">
  <g stroke="#ff6a00" stroke-width="2.2" stroke-linecap="round" stroke-linejoin="round" opacity="0.22">
    <path d="M3 2.5H5.5"/>
    <path d="M2.5 3V5.5"/>
    <path d="M10.5 2.5H13"/>
    <path d="M13.5 3V5.5"/>
    <path d="M13.5 10.5V13"/>
    <path d="M10.5 13.5H13"/>
    <path d="M3 13.5H5.5"/>
    <path d="M2.5 10.5V13"/>
    <path d="M3.4 8C4.7 5.8 6.2 4.7 8 4.7C9.8 4.7 11.3 5.8 12.6 8C11.3 10.2 9.8 11.3 8 11.3C6.2 11.3 4.7 10.2 3.4 8Z"/>
    <circle cx="8" cy="8" r="1.5"/>
  </g>
  <g stroke="#ffb347" stroke-width="1.15" stroke-linecap="round" stroke-linejoin="round">
    <path d="M3 2.5H5.5"/>
    <path d="M2.5 3V5.5"/>
    <path d="M10.5 2.5H13"/>
    <path d="M13.5 3V5.5"/>
    <path d="M13.5 10.5V13"/>
    <path d="M10.5 13.5H13"/>
    <path d="M3 13.5H5.5"/>
    <path d="M2.5 10.5V13"/>
    <path d="M3.4 8C4.7 5.8 6.2 4.7 8 4.7C9.8 4.7 11.3 5.8 12.6 8C11.3 10.2 9.8 11.3 8 11.3C6.2 11.3 4.7 10.2 3.4 8Z"/>
    <circle cx="8" cy="8" r="1.5"/>
  </g>
</svg>
