<svg xmlns="http://www.w3.org/2000/svg" viewBox="0 0 16 16" fill="none">
  <g stroke="#ff6a00" stroke-width="2.2" stroke-linecap="round" stroke-linejoin="round" opacity="0.22">
    <path d="M3 2.5H5.5"/>
    <path d="M2.5 3V5.5"/>
    <path d="M10.5 2.5H13"/>
    <path d="M13.5 3V5.5"/>
    <path d="M13.5 10.5V13"/>
    <path d="M10.5 13.5H13"/>
    <path d="M3 13.5H5.5"/>
    <path d="M2.5 10.5V13"/>
    <rect x="4.1" y="3.6" width="7.8" height="8.8" rx="1"/>
    <path d="M6.1 3.6V12.4"/>
    <circle cx="8.8" cy="7.2" r="1.6"/>
    <path d="M7.2 7.2H10.4"/>
    <path d="M8.8 5.6C9.4 6 9.7 6.6 9.7 7.2C9.7 7.8 9.4 8.4 8.8 8.8C8.2 8.4 7.9 7.8 7.9 7.2C7.9 6.6 8.2 6 8.8 5.6Z"/>
  </g>
  <g stroke="#ffb347" stroke-width="1.15" stroke-linecap="round" stroke-linejoin="round">
    <path d="M3 2.5H5.5"/>
    <path d="M2.5 3V5.5"/>
    <path d="M10.5 2.5H13"/>
    <path d="M13.5 3V5.5"/>
    <path d="M13.5 10.5V13"/>
    <path d="M10.5 13.5H13"/>
    <path d="M3 13.5H5.5"/>
    <path d="M2.5 10.5V13"/>
    <rect x="4.1" y="3.6" width="7.8" height="8.8" rx="1"/>
    <path d="M6.1 3.6V12.4"/>
    <circle cx="8.8" cy="7.2" r="1.6"/>
    <path d="M7.2 7.2H10.4"/>
    <path d="M8.8 5.6C9.4 6 9.7 6.6 9.7 7.2C9.7 7.8 9.4 8.4 8.8 8.8C8.2 8.4 7.9 7.8 7.9 7.2C7.9 6.6 8.2 6 8.8 5.6Z"/>
  </g>
</svg>
