<svg xmlns="http://www.w3.org/2000/svg" viewBox="0 0 16 16" fill="none">
  <g stroke="#ff6a00" stroke-width="2.2" stroke-linecap="round" stroke-linejoin="round" opacity="0.22">
    <path d="M3 2.5H5.5"/>
    <path d="M2.5 3V5.5"/>
    <path d="M10.5 2.5H13"/>
    <path d="M13.5 3V5.5"/>
    <path d="M13.5 10.5V13"/>
    <path d="M10.5 13.5H13"/>
    <path d="M3 13.5H5.5"/>
    <path d="M2.5 10.5V13"/>
    <path d="M5 10.8L6.2 8.4L8.5 6.1L10.8 4.9L9.6 7.2L7.3 9.5L5 10.8Z"/>
    <path d="M8.7 5.9L10.7 3.9"/>
    <path d="M5.4 10.4L4.3 11.5"/>
  </g>
  <g stroke="#ffb347" stroke-width="1.15" stroke-linecap="round" stroke-linejoin="round">
    <path d="M3 2.5H5.5"/>
    <path d="M2.5 3V5.5"/>
    <path d="M10.5 2.5H13"/>
    <path d="M13.5 3V5.5"/>
    <path d="M13.5 10.5V13"/>
    <path d="M10.5 13.5H13"/>
    <path d="M3 13.5H5.5"/>
    <path d="M2.5 10.5V13"/>
    <path d="M5 10.8L6.2 8.4L8.5 6.1L10.8 4.9L9.6 7.2L7.3 9.5L5 10.8Z"/>
    <path d="M8.7 5.9L10.7 3.9"/>
    <path d="M5.4 10.4L4.3 11.5"/>
  </g>
</svg>
