<svg xmlns="http://www.w3.org/2000/svg" viewBox="0 0 16 16" fill="none">
  <g stroke="#ff6a00" stroke-width="2.2" stroke-linecap="round" stroke-linejoin="round" opacity="0.22">
    <path d="M3 2.5H5.5"/>
    <path d="M2.5 3V5.5"/>
    <path d="M10.5 2.5H13"/>
    <path d="M13.5 3V5.5"/>
    <path d="M13.5 10.5V13"/>
    <path d="M10.5 13.5H13"/>
    <path d="M3 13.5H5.5"/>
    <path d="M2.5 10.5V13"/>
    <path d="M5.2 4.5H7C7.2 3.8 7.6 3.5 8 3.5C8.4 3.5 8.8 3.8 9 4.5H10.8V6.3C11.5 6.5 11.8 6.9 11.8 7.3C11.8 7.7 11.5 8.1 10.8 8.3V10.8H9C8.8 11.5 8.4 11.8 8 11.8C7.6 11.8 7.2 11.5 7 10.8H5.2Z"/>
  </g>
  <g stroke="#ffb347" stroke-width="1.15" stroke-linecap="round" stroke-linejoin="round">
    <path d="M3 2.5H5.5"/>
    <path d="M2.5 3V5.5"/>
    <path d="M10.5 2.5H13"/>
    <path d="M13.5 3V5.5"/>
    <path d="M13.5 10.5V13"/>
    <path d="M10.5 13.5H13"/>
    <path d="M3 13.5H5.5"/>
    <path d="M2.5 10.5V13"/>
    <path d="M5.2 4.5H7C7.2 3.8 7.6 3.5 8 3.5C8.4 3.5 8.8 3.8 9 4.5H10.8V6.3C11.5 6.5 11.8 6.9 11.8 7.3C11.8 7.7 11.5 8.1 10.8 8.3V10.8H9C8.8 11.5 8.4 11.8 8 11.8C7.6 11.8 7.2 11.5 7 10.8H5.2Z"/>
  </g>
</svg>
