<svg xmlns="http://www.w3.org/2000/svg" viewBox="0 0 16 16" fill="none">
  <g stroke="#ff6a00" stroke-width="2.2" stroke-linecap="round" stroke-linejoin="round" opacity="0.22">
    <path d="M3 2.5H5.5"/>
    <path d="M2.5 3V5.5"/>
    <path d="M10.5 2.5H13"/>
    <path d="M13.5 3V5.5"/>
    <path d="M13.5 10.5V13"/>
    <path d="M10.5 13.5H13"/>
    <path d="M3 13.5H5.5"/>
    <path d="M2.5 10.5V13"/>
    <path d="M4.1 4.1H7.1V7.1H4.1Z"/>
    <path d="M8.9 4.1H11.9V7.1H8.9Z"/>
    <path d="M4.1 8.9H7.1V11.9H4.1Z"/>
    <path d="M8.9 8.9H11.9V11.9H8.9Z"/>
    <path d="M7.1 5.6H8.9"/>
    <path d="M5.6 7.1V8.9"/>
    <path d="M10.4 7.1V8.9"/>
    <path d="M7.1 10.4H8.9"/>
  </g>
  <g stroke="#ffb347" stroke-width="1.15" stroke-linecap="round" stroke-linejoin="round">
    <path d="M3 2.5H5.5"/>
    <path d="M2.5 3V5.5"/>
    <path d="M10.5 2.5H13"/>
    <path d="M13.5 3V5.5"/>
    <path d="M13.5 10.5V13"/>
    <path d="M10.5 13.5H13"/>
    <path d="M3 13.5H5.5"/>
    <path d="M2.5 10.5V13"/>
    <path d="M4.1 4.1H7.1V7.1H4.1Z"/>
    <path d="M8.9 4.1H11.9V7.1H8.9Z"/>
    <path d="M4.1 8.9H7.1V11.9H4.1Z"/>
    <path d="M8.9 8.9H11.9V11.9H8.9Z"/>
    <path d="M7.1 5.6H8.9"/>
    <path d="M5.6 7.1V8.9"/>
    <path d="M10.4 7.1V8.9"/>
    <path d="M7.1 10.4H8.9"/>
  </g>
</svg>
