<svg xmlns="http://www.w3.org/2000/svg" viewBox="0 0 16 16" fill="none">
  <g stroke="#ff6a00" stroke-width="2.2" stroke-linecap="round" stroke-linejoin="round" opacity="0.22">
    <path d="M3 2.5H5.5"/>
    <path d="M2.5 3V5.5"/>
    <path d="M10.5 2.5H13"/>
    <path d="M13.5 3V5.5"/>
    <path d="M13.5 10.5V13"/>
    <path d="M10.5 13.5H13"/>
    <path d="M3 13.5H5.5"/>
    <path d="M2.5 10.5V13"/>
    <circle cx="4.8" cy="10.7" r="0.9"/>
    <circle cx="8.1" cy="7.5" r="0.9"/>
    <circle cx="11.3" cy="5.2" r="0.9"/>
    <path d="M5.6 10.1C6.2 9.4 6.7 8.8 7.3 8.1"/>
    <path d="M8.9 6.9C9.5 6.4 10 5.9 10.6 5.5"/>
    <path d="M4.7 10.8C4.4 8.5 4.8 6.5 6.1 4.6"/>
  </g>
  <g stroke="#ffb347" stroke-width="1.15" stroke-linecap="round" stroke-linejoin="round">
    <path d="M3 2.5H5.5"/>
    <path d="M2.5 3V5.5"/>
    <path d="M10.5 2.5H13"/>
    <path d="M13.5 3V5.5"/>
    <path d="M13.5 10.5V13"/>
    <path d="M10.5 13.5H13"/>
    <path d="M3 13.5H5.5"/>
    <path d="M2.5 10.5V13"/>
    <circle cx="4.8" cy="10.7" r="0.9"/>
    <circle cx="8.1" cy="7.5" r="0.9"/>
    <circle cx="11.3" cy="5.2" r="0.9"/>
    <path d="M5.6 10.1C6.2 9.4 6.7 8.8 7.3 8.1"/>
    <path d="M8.9 6.9C9.5 6.4 10 5.9 10.6 5.5"/>
    <path d="M4.7 10.8C4.4 8.5 4.8 6.5 6.1 4.6"/>
  </g>
</svg>
