<svg xmlns="http://www.w3.org/2000/svg" viewBox="0 0 16 16" fill="none">
  <g stroke="#ff6a00" stroke-width="2.2" stroke-linecap="round" stroke-linejoin="round" opacity="0.22">
    <path d="M3 2.5H5.5"/>
    <path d="M2.5 3V5.5"/>
    <path d="M10.5 2.5H13"/>
    <path d="M13.5 3V5.5"/>
    <path d="M13.5 10.5V13"/>
    <path d="M10.5 13.5H13"/>
    <path d="M3 13.5H5.5"/>
    <path d="M2.5 10.5V13"/>
    <circle cx="5" cy="8" r="1"/>
    <circle cx="10.9" cy="4.8" r="1"/>
    <circle cx="10.9" cy="11.2" r="1"/>
    <path d="M5.9 7.5L10 5.3"/>
    <path d="M5.9 8.5L10 10.7"/>
  </g>
  <g stroke="#ffb347" stroke-width="1.15" stroke-linecap="round" stroke-linejoin="round">
    <path d="M3 2.5H5.5"/>
    <path d="M2.5 3V5.5"/>
    <path d="M10.5 2.5H13"/>
    <path d="M13.5 3V5.5"/>
    <path d="M13.5 10.5V13"/>
    <path d="M10.5 13.5H13"/>
    <path d="M3 13.5H5.5"/>
    <path d="M2.5 10.5V13"/>
    <circle cx="5" cy="8" r="1"/>
    <circle cx="10.9" cy="4.8" r="1"/>
    <circle cx="10.9" cy="11.2" r="1"/>
    <path d="M5.9 7.5L10 5.3"/>
    <path d="M5.9 8.5L10 10.7"/>
  </g>
</svg>
