<svg xmlns="http://www.w3.org/2000/svg" viewBox="0 0 16 16" fill="none">
  <g stroke="#ff6a00" stroke-width="2.2" stroke-linecap="round" stroke-linejoin="round" opacity="0.22">
    <path d="M3 2.5H5.5"/>
    <path d="M2.5 3V5.5"/>
    <path d="M10.5 2.5H13"/>
    <path d="M13.5 3V5.5"/>
    <path d="M13.5 10.5V13"/>
    <path d="M10.5 13.5H13"/>
    <path d="M3 13.5H5.5"/>
    <path d="M2.5 10.5V13"/>
    <rect x="4.8" y="4.8" width="6.4" height="6.4" rx="0.8"/>
    <path d="M6.4 2.9V4.2M8 2.9V4.2M9.6 2.9V4.2"/>
    <path d="M6.4 11.8V13.1M8 11.8V13.1M9.6 11.8V13.1"/>
    <path d="M2.9 6.4H4.2M2.9 8H4.2M2.9 9.6H4.2"/>
    <path d="M11.8 6.4H13.1M11.8 8H13.1M11.8 9.6H13.1"/>
  </g>
  <g stroke="#ffb347" stroke-width="1.15" stroke-linecap="round" stroke-linejoin="round">
    <path d="M3 2.5H5.5"/>
    <path d="M2.5 3V5.5"/>
    <path d="M10.5 2.5H13"/>
    <path d="M13.5 3V5.5"/>
    <path d="M13.5 10.5V13"/>
    <path d="M10.5 13.5H13"/>
    <path d="M3 13.5H5.5"/>
    <path d="M2.5 10.5V13"/>
    <rect x="4.8" y="4.8" width="6.4" height="6.4" rx="0.8"/>
    <path d="M6.4 2.9V4.2M8 2.9V4.2M9.6 2.9V4.2"/>
    <path d="M6.4 11.8V13.1M8 11.8V13.1M9.6 11.8V13.1"/>
    <path d="M2.9 6.4H4.2M2.9 8H4.2M2.9 9.6H4.2"/>
    <path d="M11.8 6.4H13.1M11.8 8H13.1M11.8 9.6H13.1"/>
  </g>
</svg>
