<svg xmlns="http://www.w3.org/2000/svg" viewBox="0 0 16 16" fill="none">
  <g stroke="#ff6a00" stroke-width="2.2" stroke-linecap="round" stroke-linejoin="round" opacity="0.22">
    <path d="M3 2.5H5.5"/>
    <path d="M2.5 3V5.5"/>
    <path d="M10.5 2.5H13"/>
    <path d="M13.5 3V5.5"/>
    <path d="M13.5 10.5V13"/>
    <path d="M10.5 13.5H13"/>
    <path d="M3 13.5H5.5"/>
    <path d="M2.5 10.5V13"/>
    <circle cx="6.2" cy="7.4" r="1.4"/>
    <circle cx="8.5" cy="6.5" r="1.6"/>
    <circle cx="10.2" cy="8" r="1.3"/>
    <path d="M6.1 9.7H9.8"/>
    <path d="M7 11.1H9.1"/>
  </g>
  <g stroke="#ffb347" stroke-width="1.15" stroke-linecap="round" stroke-linejoin="round">
    <path d="M3 2.5H5.5"/>
    <path d="M2.5 3V5.5"/>
    <path d="M10.5 2.5H13"/>
    <path d="M13.5 3V5.5"/>
    <path d="M13.5 10.5V13"/>
    <path d="M10.5 13.5H13"/>
    <path d="M3 13.5H5.5"/>
    <path d="M2.5 10.5V13"/>
    <circle cx="6.2" cy="7.4" r="1.4"/>
    <circle cx="8.5" cy="6.5" r="1.6"/>
    <circle cx="10.2" cy="8" r="1.3"/>
    <path d="M6.1 9.7H9.8"/>
    <path d="M7 11.1H9.1"/>
  </g>
</svg>
