<svg xmlns="http://www.w3.org/2000/svg" viewBox="0 0 16 16" fill="none">
  <g stroke="#ff6a00" stroke-width="2.2" stroke-linecap="round" stroke-linejoin="round" opacity="0.22">
    <path d="M3 2.5H5.5"/>
    <path d="M2.5 3V5.5"/>
    <path d="M10.5 2.5H13"/>
    <path d="M13.5 3V5.5"/>
    <path d="M13.5 10.5V13"/>
    <path d="M10.5 13.5H13"/>
    <path d="M3 13.5H5.5"/>
    <path d="M2.5 10.5V13"/>
    <path d="M6.1 9.8C5.2 9.3 4.7 8.3 4.7 7.3C4.7 5.5 6.2 4 8 4C9.8 4 11.3 5.5 11.3 7.3C11.3 8.3 10.8 9.3 9.9 9.8L9.4 11.1H6.6Z"/>
    <path d="M6.9 12.2H9.1"/>
  </g>
  <g stroke="#ffb347" stroke-width="1.15" stroke-linecap="round" stroke-linejoin="round">
    <path d="M3 2.5H5.5"/>
    <path d="M2.5 3V5.5"/>
    <path d="M10.5 2.5H13"/>
    <path d="M13.5 3V5.5"/>
    <path d="M13.5 10.5V13"/>
    <path d="M10.5 13.5H13"/>
    <path d="M3 13.5H5.5"/>
    <path d="M2.5 10.5V13"/>
    <path d="M6.1 9.8C5.2 9.3 4.7 8.3 4.7 7.3C4.7 5.5 6.2 4 8 4C9.8 4 11.3 5.5 11.3 7.3C11.3 8.3 10.8 9.3 9.9 9.8L9.4 11.1H6.6Z"/>
    <path d="M6.9 12.2H9.1"/>
  </g>
</svg>
